<?xml version="1.0" standalone="no"?>
<!DOCTYPE svg PUBLIC "-//W3C//DTD SVG 20010904//EN"
 "http://www.w3.org/TR/2001/REC-SVG-20010904/DTD/svg10.dtd">
<svg version="1.0" xmlns="http://www.w3.org/2000/svg"
 width="1280.000000pt" height="1280.000000pt" viewBox="0 0 1280.000000 1280.000000"
 preserveAspectRatio="xMidYMid meet">

<g transform="translate(0.000000,1280.000000) scale(0.100000,-0.100000)"
fill="#000000" stroke="none">
<path d="M7445 10030 c-104 -54 -235 -117 -290 -138 -460 -182 -1099 -302
-1610 -302 -464 0 -743 83 -848 252 -38 60 -57 61 -113 5 -70 -71 -71 -121 -2
-188 190 -184 831 -287 1266 -203 51 9 95 14 99 11 12 -13 -51 -68 -112 -97
-124 -61 -197 -73 -440 -74 -136 -1 -254 4 -310 12 -124 19 -318 67 -394 97
l-63 26 -97 -93 c-200 -195 -374 -278 -582 -278 -161 0 -296 57 -414 175 -118
118 -170 241 -163 386 4 79 2 89 -13 89 -24 0 -97 -85 -109 -129 -47 -161 -1
-342 126 -495 64 -78 55 -83 -50 -29 -109 57 -222 174 -274 283 -22 47 -46
110 -53 140 -17 73 -17 233 0 293 29 100 -26 72 -115 -58 -69 -100 -124 -295
-124 -434 0 -86 35 -235 74 -318 80 -167 234 -316 418 -402 143 -67 269 -98
444 -108 63 -3 111 -10 107 -14 -5 -5 -44 -16 -88 -25 -116 -24 -310 -15 -426
19 -181 55 -326 142 -440 266 l-70 76 -67 -70 c-229 -239 -298 -628 -170 -945
33 -79 57 -116 69 -103 3 5 18 51 33 103 32 117 98 254 165 341 88 117 142
141 83 37 -53 -92 -85 -203 -85 -293 1 -100 29 -200 58 -200 14 0 22 12 31 42
25 84 94 200 169 280 159 171 397 292 746 377 164 40 432 89 457 84 25 -6 -60
-47 -233 -112 -204 -78 -338 -133 -410 -168 -170 -85 -319 -215 -389 -340
-125 -225 -121 -501 10 -674 30 -39 93 -86 105 -78 4 2 8 40 8 84 1 167 84
314 236 417 93 63 156 76 355 74 346 -3 602 39 828 138 114 49 192 100 275
179 71 69 80 67 50 -10 -73 -189 -280 -357 -541 -438 -138 -43 -217 -53 -462
-55 -299 -3 -371 -21 -476 -117 -56 -51 -128 -198 -98 -198 3 0 31 20 62 44
134 105 292 143 475 115 123 -19 135 -39 33 -54 -55 -8 -229 -66 -291 -97
-178 -91 -333 -259 -382 -416 -30 -95 -13 -210 43 -294 32 -50 50 -49 57 3 3
23 19 70 36 104 95 192 362 301 792 324 151 9 214 3 163 -15 -51 -18 -186 -85
-237 -117 -31 -20 -97 -73 -147 -118 -102 -91 -246 -173 -448 -254 -142 -58
-285 -127 -332 -163 -112 -83 -226 -218 -270 -317 -13 -27 -27 -58 -31 -68
-54 -106 -67 -428 -25 -622 25 -118 59 -242 81 -290 7 -16 18 -46 25 -65 18
-47 142 -302 178 -365 137 -238 250 -399 446 -640 198 -242 465 -509 731 -730
160 -133 483 -365 555 -398 8 -4 44 -25 80 -47 85 -53 368 -192 456 -225 98
-37 261 -90 314 -103 42 -10 65 -14 208 -42 29 -5 133 -10 231 -10 149 0 197
4 302 25 194 39 292 68 471 141 157 64 466 221 498 254 3 3 21 14 40 24 88 48
264 173 499 356 260 201 663 616 880 906 41 54 91 122 112 149 157 210 351
577 435 820 63 184 94 357 94 520 0 264 -80 467 -251 636 -86 86 -242 184
-339 214 -14 4 -53 21 -88 36 -34 16 -65 29 -68 29 -26 0 -328 166 -434 238
-96 65 -106 85 -66 133 14 16 30 49 36 72 6 23 31 103 55 177 24 74 46 153 48
175 3 22 16 96 28 165 33 181 33 527 0 714 -38 213 -113 455 -183 584 -17 31
-93 156 -168 277 -76 121 -164 267 -196 325 -32 58 -87 147 -121 198 -125 184
-186 342 -224 582 -14 83 -24 110 -42 110 -7 -1 -97 -45 -202 -100z m189 -285
c22 -199 39 -307 76 -470 16 -75 30 -142 30 -150 0 -9 -13 -33 -29 -56 -17
-22 -36 -66 -42 -96 -21 -92 4 -184 102 -381 63 -127 80 -168 72 -181 -5 -9
-45 -28 -89 -43 -117 -40 -151 -92 -104 -163 27 -40 25 -67 -5 -95 -28 -26
-42 -22 -26 8 18 33 13 52 -11 52 -13 0 -81 -12 -152 -27 -101 -21 -134 -24
-156 -16 -31 12 -50 1 -50 -28 0 -28 138 -67 275 -78 75 -6 80 -7 89 -33 24
-69 -47 -111 -152 -89 -104 22 -107 21 -107 -22 0 -37 1 -39 54 -57 75 -25
106 -59 106 -114 0 -106 -117 -176 -294 -176 -267 1 -540 129 -835 393 -69 62
-92 66 -81 14 34 -160 280 -365 556 -463 41 -14 79 -31 86 -38 8 -7 17 -115
28 -341 27 -573 43 -827 54 -838 7 -7 17 3 31 36 18 41 21 74 26 279 3 128 7
234 9 236 2 2 20 -22 40 -52 20 -30 55 -69 78 -86 71 -52 117 -60 346 -60 188
0 208 -2 248 -21 76 -37 115 -126 93 -211 -9 -36 -33 -65 -138 -168 -267 -264
-509 -412 -817 -498 -101 -29 -337 -65 -429 -66 -73 -1 -80 1 -97 24 -11 14
-24 52 -30 85 -17 89 -27 105 -65 105 -35 0 -32 5 -49 -90 -3 -19 -16 -55 -28
-80 -20 -41 -26 -45 -62 -48 -47 -4 -184 13 -311 38 -368 75 -753 329 -1060
700 -105 126 -147 192 -131 206 6 6 89 28 182 48 94 20 215 51 270 67 177 55
324 143 381 229 15 22 30 40 35 40 5 0 24 -33 42 -73 19 -40 50 -99 70 -130
51 -80 169 -200 246 -251 88 -58 220 -102 235 -78 2 4 -14 37 -36 72 -98 153
-161 382 -188 685 -5 61 -10 134 -10 164 l0 53 28 -18 c19 -13 46 -19 94 -19
59 0 70 3 104 31 58 47 78 88 79 164 0 70 -32 155 -81 213 -19 22 -24 40 -24
81 0 29 -3 56 -7 60 -13 13 -18 71 -8 101 4 15 -2 29 -19 48 -33 35 -33 57 0
88 16 15 23 30 20 43 -3 11 2 28 11 38 28 31 2 43 -40 18 l-37 -22 -35 22
c-29 18 -35 28 -35 56 0 59 57 92 110 64 11 -6 25 -28 31 -50 7 -23 17 -39 23
-37 32 11 2 101 -39 117 -55 21 -134 2 -149 -35 -13 -35 -6 -102 14 -128 11
-14 20 -36 20 -50 0 -13 9 -32 20 -42 25 -22 26 -52 3 -77 -12 -13 -18 -38
-19 -79 0 -33 -6 -65 -13 -72 -6 -6 -11 -36 -11 -67 0 -44 -4 -61 -20 -75 -20
-18 -20 -17 -20 26 0 24 7 111 15 194 7 82 11 153 8 158 -3 5 -16 6 -29 3 -63
-16 -152 81 -200 217 -8 24 -11 44 -5 50 4 4 62 26 127 48 286 94 593 285 790
490 64 67 174 205 174 219 0 31 221 50 363 31 104 -14 229 -49 347 -97 98 -39
112 -35 85 26 -32 71 -119 127 -242 156 -82 19 -323 14 -416 -9 -31 -8 -60
-11 -62 -7 -3 5 14 47 37 95 l43 87 100 52 c207 107 373 219 503 339 30 27 57
46 62 41 4 -5 15 -76 24 -159z m-714 -95 c0 -14 -126 -85 -212 -119 -160 -63
-489 -133 -514 -109 -10 11 27 98 46 108 10 5 139 30 286 55 148 24 294 51
324 59 71 18 70 18 70 6z m-260 -322 c0 -7 -19 -38 -43 -69 -170 -225 -382
-383 -647 -482 -101 -38 -282 -79 -306 -70 -10 3 -14 21 -14 57 0 74 17 125
55 163 29 29 39 33 87 33 36 0 62 -6 83 -20 17 -11 38 -20 47 -20 17 0 50 50
128 193 29 53 49 78 63 81 104 20 303 73 397 105 127 43 150 47 150 29z
m-1475 -258 c3 -11 23 -33 43 -49 20 -17 34 -32 31 -34 -2 -2 -17 -11 -32 -21
-15 -9 -33 -28 -39 -42 -14 -31 -23 -30 -44 5 -9 15 -30 36 -46 46 l-30 17 37
25 c20 13 40 35 45 49 11 29 26 31 35 4z m-624 -32 c99 -194 266 -337 475
-407 126 -42 239 -55 424 -48 221 7 411 52 608 143 85 40 91 41 66 13 -63 -71
-284 -189 -424 -229 -181 -51 -420 -73 -559 -51 -278 44 -517 242 -604 501
-38 113 -29 162 14 78z m-406 -213 c17 -16 25 -35 25 -60 0 -80 -92 -116 -149
-60 -35 34 -33 91 4 122 36 31 88 31 120 -2z m620 -585 c0 -18 -6 -26 -23 -28
-27 -4 -40 22 -22 44 19 22 45 13 45 -16z m1283 -47 c-4 -22 -38 -30 -49 -12
-11 19 -2 29 27 29 19 0 25 -5 22 -17z m-1563 -16 c39 -33 39 -91 1 -123 -58
-50 -140 -14 -140 61 0 74 82 111 139 62z m1192 -49 c7 -17 3 -51 -18 -135
-82 -334 -227 -591 -419 -738 -173 -133 -357 -189 -725 -219 -354 -29 -525
-56 -631 -101 -45 -18 -44 -18 -44 0 0 18 88 89 150 120 74 38 235 83 390 109
511 87 689 161 900 375 137 137 240 303 320 511 17 47 34 88 37 93 9 14 30 6
40 -15z m2538 -126 l26 -13 -43 -39 -43 -38 -37 35 -37 36 37 42 37 43 17 -26
c9 -14 29 -32 43 -40z m-2181 52 c20 -8 21 -28 2 -43 -11 -9 -18 -8 -30 5 -13
12 -14 19 -5 30 13 16 12 16 33 8z m-1914 -43 c7 -15 6 -24 -6 -36 -9 -9 -21
-14 -27 -12 -18 6 -31 33 -24 51 9 22 44 20 57 -3z m1925 -61 c0 -18 -33 -26
-47 -12 -6 6 -7 15 -3 22 10 16 50 8 50 -10z m15 -85 c0 -22 -4 -25 -40 -25
-36 0 -40 3 -40 25 0 23 4 25 40 25 36 0 40 -2 40 -25z m28 -92 c93 -119 107
-257 32 -328 -55 -52 -179 -43 -210 16 -6 11 -11 64 -11 119 0 78 4 106 19
137 35 66 63 92 104 92 30 1 41 -5 66 -36z m-488 -338 c-48 -288 -213 -481
-464 -540 -66 -16 -136 -20 -136 -7 0 4 27 22 59 41 87 49 222 161 289 240 87
100 137 179 201 310 l56 116 3 -45 c2 -25 -1 -76 -8 -115z m1992 -114 c28 -25
33 -36 33 -75 0 -64 -37 -101 -100 -101 -57 0 -94 34 -102 93 -5 37 -2 45 30
77 46 46 92 48 139 6z m248 9 c0 -13 -7 -20 -20 -20 -13 0 -20 7 -20 20 0 13
7 20 20 20 13 0 20 -7 20 -20z m-275 -345 c30 -29 32 -58 5 -85 -39 -39 -110
-11 -110 44 0 25 41 66 67 66 8 0 25 -11 38 -25z m415 -90 c10 -12 10 -18 0
-30 -16 -20 -36 -19 -44 1 -6 16 9 44 24 44 4 0 13 -7 20 -15z m446 -398 c140
-102 302 -189 515 -277 147 -60 158 -66 228 -107 222 -131 351 -366 351 -636
0 -83 -21 -249 -41 -322 -5 -22 -14 -57 -20 -77 -9 -37 -32 -103 -50 -143 -5
-11 -18 -46 -30 -78 -11 -31 -40 -98 -65 -148 -257 -525 -708 -1070 -1264
-1529 -342 -283 -769 -539 -1080 -647 -25 -9 -49 -19 -55 -23 -10 -7 -42 -16
-160 -49 -264 -73 -511 -82 -760 -29 -178 37 -442 135 -647 238 -244 124 -577
351 -852 581 -119 100 -466 441 -562 555 -99 115 -219 263 -247 304 -13 19
-50 73 -83 120 -33 47 -69 101 -80 120 -12 19 -45 73 -74 120 -202 327 -338
727 -339 1000 -1 111 34 260 85 364 57 117 218 268 344 322 14 6 43 19 65 29
22 10 77 32 121 51 45 18 118 51 163 73 94 48 111 50 111 17 0 -14 4 -27 8
-30 4 -3 39 24 76 60 69 65 200 140 228 129 7 -3 20 -15 27 -28 77 -124 211
-271 376 -412 66 -57 163 -146 214 -199 l95 -95 -22 -53 c-28 -69 -28 -124 1
-191 29 -64 103 -132 161 -148 53 -14 142 -8 186 14 l34 18 119 -119 118 -118
-15 -34 c-23 -57 -28 -116 -16 -176 10 -47 21 -65 63 -109 82 -84 185 -104
294 -59 l36 16 61 -60 c64 -63 140 -111 191 -122 l30 -6 3 -106 3 -105 -47
-12 c-116 -29 -238 -140 -308 -279 -77 -153 -101 -274 -93 -477 4 -124 9 -151
37 -235 37 -110 49 -135 100 -211 71 -103 141 -159 252 -200 56 -20 172 -26
183 -9 3 5 14 10 23 10 36 0 121 50 174 102 100 97 177 247 203 395 17 92 19
291 5 383 -13 80 -64 221 -102 277 -15 23 -28 46 -28 50 0 5 -27 36 -60 69
-59 59 -156 118 -212 129 l-28 5 0 110 c0 109 0 110 24 110 40 0 118 49 188
117 l67 66 43 -19 c55 -25 158 -25 210 0 45 22 113 89 126 125 38 107 38 122
-5 220 l-14 35 119 119 120 120 44 -22 c56 -27 147 -28 203 -2 52 24 113 84
136 135 26 57 25 147 -2 204 l-22 44 89 90 c49 49 139 131 199 182 157 133
302 288 382 411 37 57 73 104 79 105 7 0 38 -19 70 -43z m-3120 -799 l89 -43
3 -45 c3 -55 -35 -122 -84 -145 -46 -21 -122 -19 -162 5 -73 45 -97 153 -48
219 54 73 69 74 202 9z m2209 12 c25 -27 30 -40 33 -100 4 -68 4 -69 -36 -112
l-41 -43 -75 0 c-74 0 -77 1 -112 37 -30 29 -38 45 -41 85 l-5 50 108 55 c60
30 116 55 125 56 8 1 28 -12 44 -28z m-1744 -182 c148 -34 229 -49 309 -58 63
-7 101 -16 113 -28 29 -25 77 -132 77 -171 0 -38 24 -71 50 -71 22 0 50 41 50
73 0 40 30 125 53 152 19 22 34 26 127 35 209 20 399 59 532 110 29 11 54 20
54 20 1 0 5 -17 9 -37 4 -21 14 -50 23 -66 l17 -27 -121 -121 -120 -120 -34
15 c-101 41 -208 27 -277 -37 -86 -79 -110 -168 -73 -277 l22 -65 -69 -66
c-80 -76 -129 -95 -222 -86 -74 6 -101 21 -181 96 l-65 61 24 44 c63 119 -7
293 -136 337 -52 18 -159 16 -207 -4 l-38 -17 -119 119 -118 120 15 30 c8 17
18 47 20 68 3 21 7 43 9 50 3 7 45 -3 128 -31 68 -24 134 -45 148 -48z m128
-372 c110 -58 130 -193 39 -270 -23 -20 -53 -37 -67 -38 -41 -3 -95 3 -101 10
-3 4 -14 12 -24 18 -58 32 -83 130 -50 199 22 46 94 95 141 95 19 0 47 -7 62
-14z m986 -17 c47 -32 79 -98 72 -150 -6 -49 -26 -79 -72 -115 -47 -35 -127
-38 -174 -5 -53 38 -74 77 -74 137 0 46 5 61 29 91 62 76 145 92 219 42z
m-497 -848 c9 -5 33 -15 52 -22 53 -20 150 -124 192 -207 57 -109 88 -249 88
-393 0 -65 -4 -128 -9 -141 -5 -13 -17 -56 -26 -97 -14 -61 -63 -170 -97 -216
-40 -54 -87 -95 -141 -122 -82 -42 -173 -46 -246 -11 -70 35 -164 134 -201
215 -17 37 -35 75 -40 84 -22 40 -42 181 -42 294 0 120 25 295 43 295 5 0 9 6
9 14 0 50 92 192 158 244 73 58 207 91 260 63z"/>
<path d="M6868 8953 c-2 -21 -13 -33 -40 -46 -51 -25 -48 -37 10 -37 34 0 66
-10 117 -35 97 -49 446 -127 461 -103 3 4 -4 21 -15 37 -25 35 -26 41 -6 41
16 0 29 37 23 66 -3 16 -19 18 -163 19 -147 1 -166 3 -240 29 -44 15 -87 34
-96 42 -25 23 -47 17 -51 -13z"/>
<path d="M7614 8420 c-46 -18 -29 -69 18 -55 29 9 69 45 62 56 -7 11 -52 10
-80 -1z"/>
<path d="M5991 8342 c-13 -25 -3 -60 20 -67 46 -15 81 24 59 65 -14 26 -65 27
-79 2z m49 -22 c0 -5 -4 -10 -10 -10 -5 0 -10 5 -10 10 0 6 5 10 10 10 6 0 10
-4 10 -10z"/>
<path d="M5988 7738 c-53 -70 -74 -150 -57 -212 11 -41 64 -86 101 -86 41 0
97 58 104 108 5 34 4 42 -9 42 -9 0 -17 -13 -21 -33 -13 -72 -80 -101 -124
-54 -32 34 -30 107 6 172 15 28 34 50 42 50 8 0 27 -22 42 -50 29 -54 55 -67
50 -25 -6 46 -63 120 -93 120 -9 0 -28 -15 -41 -32z"/>
<path d="M5444 4598 c-5 -7 -11 -36 -15 -65 -10 -71 -43 -134 -101 -189 -26
-25 -48 -54 -48 -64 0 -10 20 -35 44 -55 54 -44 95 -119 103 -188 7 -65 17
-77 59 -77 27 0 34 4 38 23 21 109 30 139 47 160 10 14 19 30 19 35 0 5 20 26
45 46 26 22 45 46 45 57 0 11 -22 40 -50 66 -55 51 -85 105 -95 173 -9 67 -24
90 -56 90 -15 0 -31 -6 -35 -12z m67 -261 c41 -52 41 -54 6 -101 l-34 -44 -36
42 c-29 36 -33 45 -23 62 16 29 50 73 56 74 3 0 17 -15 31 -33z"/>
<path d="M7142 4598 c-7 -7 -12 -20 -12 -30 0 -11 -10 -49 -21 -86 -18 -55
-33 -78 -80 -126 -33 -33 -59 -65 -59 -72 0 -8 26 -39 58 -71 47 -48 61 -70
79 -128 13 -38 24 -81 25 -95 2 -19 10 -26 31 -28 39 -5 53 11 60 66 8 68 49
143 101 189 60 53 60 77 1 126 -49 41 -94 125 -103 192 -2 22 -9 48 -14 58
-10 20 -48 23 -66 5z m67 -273 l32 -45 -25 -33 c-52 -64 -48 -62 -64 -31 -8
16 -24 36 -35 45 l-21 17 32 36 c18 20 32 41 32 46 0 21 18 8 49 -35z"/>
<path d="M6224 4159 c-27 -17 -52 -37 -57 -45 -4 -7 -13 -19 -20 -26 -32 -33
-77 -132 -91 -201 -62 -301 11 -600 170 -693 31 -18 55 -24 101 -24 52 0 68 5
109 33 60 40 119 123 140 196 9 31 20 64 25 74 28 53 27 377 0 412 -5 5 -12
26 -16 45 -19 90 -96 200 -165 235 -71 36 -132 34 -196 -6z m148 -75 c41 -21
64 -49 89 -104 12 -25 27 -58 34 -75 22 -50 38 -193 30 -285 -7 -97 -18 -147
-46 -207 -10 -24 -19 -46 -19 -49 0 -19 -56 -76 -92 -94 -40 -19 -40 -19 -83
1 -51 24 -95 88 -120 174 -10 33 -22 70 -28 83 -16 34 -15 248 2 302 7 25 20
66 28 91 28 94 103 179 156 179 10 0 32 -7 49 -16z"/>
</g>
</svg>
